<?xml version="1.0" encoding="utf-8"?>
<!-- Generator: Adobe Illustrator 24.0.2, SVG Export Plug-In . SVG Version: 6.00 Build 0)  -->
<svg version="1.1" id="Слой_1" xmlns="http://www.w3.org/2000/svg" xmlns:xlink="http://www.w3.org/1999/xlink" x="0px" y="0px"
	 viewBox="0 0 65 61" style="enable-background:new 0 0 65 61;" xml:space="preserve">
<style type="text/css">
	.st0{fill:none;}
	.st1{fill:#9B111B;}
	.st2{fill:#FFFFFF;}
</style>
<g>
	<path class="st0" d="M106.6,10.2c1.7-1.9,3.6-3.5,5.8-5c3.8-2.5,8.1-4.1,12.5-5.2C113.2,0,103,0,94.1,0C99,2.5,103.1,6,106.6,10.2z
		"/>
	<path class="st0" d="M119.1,27.7c-0.9-0.2-1.8-0.4-2.7-0.6c1.1,2.7,2.1,5.5,3.1,8.3c0.6-0.6,1.1-1.2,1.7-1.9
		c-0.1-0.8-0.1-1.7-0.2-2.5C119.9,30.2,119.3,28.9,119.1,27.7z"/>
	<path class="st0" d="M185.4,8.5c2.5,0.5,4.9,1,7.4,1.6c8.3,0.4,17.4,1.5,25,5.2c1.9,0,3.7,0.1,5.6,0.2c0.5-0.2,1-0.4,1.6-0.5
		c3.4-0.4,6.8-0.6,10.2-0.8c-14.9-5.5-31.8-7.1-48.1-7.5C186.6,7.3,186,7.9,185.4,8.5z"/>
	<path class="st0" d="M222.1,0.7C234,3,246.9,6.6,256.6,14.3c3.1,0,6.3,0,9.4-0.1c1.2-0.4,2.4-0.7,3.7-1c2.2-0.5,4.2,0.6,5.3,2.2V0
		h-56.7C219.6,0.2,220.8,0.4,222.1,0.7z"/>
	<path class="st0" d="M265.6,44.8c-1.6,1.7-4,3.1-7.3,4c-0.1,0-0.2,0.1-0.4,0.1c-0.8,1.2-2.1,2-4,2.1c-11.8,0.5-23.7,0.4-35.6-0.2
		c-10.9-0.5-21.8-1.4-32.6-3.1c-0.3,1.6-1.2,3.1-2.6,3.8c-0.9,0.8-2,1.4-3.2,1.5c-11.4,0.6-24-0.5-35.6-4c-4.4-0.1-8.7,0-13,0.3
		c-0.1,3.9-0.3,7.8-0.7,11.6H275V41.9C272.1,43.5,268.9,44.4,265.6,44.8z"/>
	<path class="st0" d="M108.4,35.1c-0.3-0.9-0.6-1.7-1-2.6c-2.3,4.8-10.2,2-9.2-3.8c1-4.5-1.4-7.2-4.5-9.4
		c-1.6,11.6-1.2,23.4-0.5,35.1c5.1-5.1,11.3-8.6,18.1-10.9C110.4,40.7,109.4,37.8,108.4,35.1z"/>
	<path class="st0" d="M85.2,9.7c0.2-0.8,0.6-1.5,1.1-2.1c-0.8-0.3-1.7-0.6-2.6-0.8C80.2,6,79.5,2.6,80.6,0C32.4,0.1,32,0.5,32,2
		c0,1.3,0.7,2,1.8,2c3.5,0,12.2,5.2,16.1,9.6c4,4.6,7.1,11.7,7.1,16.4c0,5-3,12.6-6.5,16.7C47,50.8,39.1,56,36.4,56
		c-0.8,0-1.4,0.5-1.4,1c0,0.6-2.5,1-5.5,1S24,57.6,24,57.1s-1.2-1.4-2.7-2C15.7,53,10.6,48.4,7.4,42.5c-1.9-3.3-3.4-7-3.4-8.2
		C4,32.7,3.4,32,2,32c-1.9,0-2,0.7-2,14.5V61h83.5C82.5,43.9,81.6,26.6,85.2,9.7z"/>
	<path class="st0" d="M100.9,61h15c-0.6-2.7-1.3-5.3-2-7.9C109,54.9,104.6,57.5,100.9,61z"/>
	<path class="st0" d="M0,13.5V0h14.5C28,0,29,0.1,29,1.9c0,1.4-1,2-3.7,2.5C17.2,5.6,6.2,16.1,4.5,24.1C4,26.1,3.2,27,1.9,27
		C0.1,27,0,26.1,0,13.5z"/>
</g>
<g>
	<path class="st1" d="M23.5,59.9c-9-2-15.2-6.9-19.6-15.4C-2.4,32.1-0.8,19.1,8.3,9.7C14.7,3.2,20.9,0.6,30,0.5
		c9.3,0,16.9,3.3,22.9,10.1c12.2,13.9,8.5,36.9-7.5,45.8C39.2,59.9,29.8,61.4,23.5,59.9z M38.9,43.7c0.8-1.1,0.5-1.6-1.4-2.5
		c-1.3-0.6-3.1-2.5-4-4.2c-1.9-3.7-5.2-4-6.5-0.5c-0.5,1.4-2.4,3.4-4.1,4.4c-2.8,1.7-2.9,2-1.2,3C24.4,45.5,37.5,45.3,38.9,43.7z"/>
</g>
<g>
	<path class="st2" d="M18,46c-3-3-2.5-5.5,1.5-7.9c1.9-1.1,4-3.2,4.5-4.5c1.8-4.9,9.9-4.6,12.4,0.3c0.9,1.6,3.1,3.8,5.1,4.9
		c4.1,2.5,4.2,3,1.4,6.6c-2,2.5-2.4,2.6-12.5,2.6C21.3,48,19.7,47.7,18,46z"/>
	<path class="st2" d="M14.6,34.4c-1.7-4.4,0.6-8.2,3.1-4.9c2,2.8,1.7,6.5-0.6,6.5C16.1,36,14.9,35.3,14.6,34.4z"/>
	<path class="st2" d="M41.4,34.5c-0.7-1.7,2.1-6.5,3.7-6.5c1.6,0,2.2,3,1.1,5.6C44.9,36.3,42.2,36.8,41.4,34.5z"/>
	<path class="st2" d="M20,27.9c-1.7-3-0.9-6.4,1.5-6.4c2.6,0,4.4,4.7,2.5,6.9C22.3,30.5,21.3,30.4,20,27.9z"/>
	<path class="st2" d="M36.4,28.6c-0.3-0.8-0.4-2.7-0.2-4.3c0.4-4,4.2-4,4.6,0C41.3,28.5,37.7,32,36.4,28.6z"/>
	<path class="st2" d="M27.4,24.6c-0.9-3.8,0.4-6.8,2.9-6.4c1.8,0.2,2.2,1,2.2,4.3c0,3.4-0.4,4-2.2,4.3
		C28.6,27.1,27.9,26.5,27.4,24.6z"/>
</g>
</svg>
